<?xml version="1.0" encoding="UTF-8" standalone="no"?>
<!-- Generator: Adobe Illustrator 17.0.0, SVG Export Plug-In . SVG Version: 6.00 Build 0)  -->

<svg
   version="1.1"
   id="Layer_1"
   x="0px"
   y="0px"
   width="165px"
   height="24px"
   viewBox="0 0 165 24"
   enable-background="new 0 0 165 24"
   xml:space="preserve"
   sodipodi:docname="logo.svg"
   inkscape:version="1.3.2 (091e20e, 2023-11-25, custom)"
   xmlns:inkscape="http://www.inkscape.org/namespaces/inkscape"
   xmlns:sodipodi="http://sodipodi.sourceforge.net/DTD/sodipodi-0.dtd"
   xmlns="http://www.w3.org/2000/svg"
   xmlns:svg="http://www.w3.org/2000/svg"><defs
   id="defs5" /><sodipodi:namedview
   id="namedview5"
   pagecolor="#ffffff"
   bordercolor="#000000"
   borderopacity="0.25"
   inkscape:showpageshadow="2"
   inkscape:pageopacity="0.0"
   inkscape:pagecheckerboard="0"
   inkscape:deskcolor="#d1d1d1"
   inkscape:zoom="7.8909091"
   inkscape:cx="92.067972"
   inkscape:cy="11.975806"
   inkscape:window-width="1920"
   inkscape:window-height="991"
   inkscape:window-x="-9"
   inkscape:window-y="-9"
   inkscape:window-maximized="1"
   inkscape:current-layer="Layer_1" />





<path
   d="m 54.141719,-18.178653 h 2.736 v 1.704 h -5.016 z m -6.78,-2.7 c 0,-0.608 0.116,-1.184 0.348,-1.728 0.232,-0.544 0.552,-1.024 0.96,-1.44 0.416,-0.424 0.896,-0.756 1.44,-0.996 0.544,-0.24 1.128,-0.36 1.752,-0.36 0.616,0 1.196,0.12 1.74,0.36 0.544,0.24 1.024,0.572 1.44,0.996 0.424,0.416 0.752,0.896 0.984,1.44 0.24,0.544 0.36,1.12 0.36,1.728 0,0.624 -0.12,1.208 -0.36,1.752 -0.232,0.544 -0.56,1.024 -0.984,1.44 -0.416,0.408 -0.896,0.728 -1.44,0.96 -0.544,0.232 -1.124,0.348 -1.74,0.348 -0.624,0 -1.208,-0.116 -1.752,-0.348 -0.544,-0.232 -1.024,-0.552 -1.44,-0.96 -0.408,-0.416 -0.728,-0.896 -0.96,-1.44 -0.232,-0.544 -0.348,-1.128 -0.348,-1.752 z m 1.8,0 c 0,0.384 0.068,0.748 0.204,1.092 0.144,0.336 0.34,0.636 0.588,0.9 0.256,0.256 0.548,0.456 0.876,0.6 0.336,0.144 0.7,0.216 1.092,0.216 0.376,0 0.724,-0.072 1.044,-0.216 0.328,-0.144 0.612,-0.344 0.852,-0.6 0.24,-0.256 0.428,-0.552 0.564,-0.888 0.136,-0.344 0.204,-0.712 0.204,-1.104 0,-0.384 -0.072,-0.744 -0.216,-1.08 -0.136,-0.344 -0.328,-0.644 -0.576,-0.9 -0.24,-0.256 -0.524,-0.456 -0.852,-0.6 -0.328,-0.144 -0.684,-0.216 -1.068,-0.216 -0.384,0 -0.74,0.072 -1.068,0.216 -0.328,0.144 -0.616,0.344 -0.864,0.6 -0.248,0.256 -0.44,0.556 -0.576,0.9 -0.136,0.336 -0.204,0.696 -0.204,1.08 z m 13.356005,4.404 v -8.832 h 2.64 c 0.888,0 1.644,0.132 2.268,0.396 0.624,0.264 1.124,0.616 1.5,1.056 0.384,0.44 0.664,0.932 0.84,1.476 0.176,0.544 0.264,1.092 0.264,1.644 0,0.656 -0.12,1.248 -0.36,1.776 -0.232,0.52 -0.552,0.968 -0.96,1.344 -0.408,0.368 -0.88,0.652 -1.416,0.852 -0.536,0.192 -1.104,0.288 -1.704,0.288 z m 1.74,-1.68 h 1.032 c 0.44,0 0.84,-0.056 1.2,-0.168 0.36,-0.12 0.668,-0.292 0.924,-0.516 0.264,-0.224 0.464,-0.504 0.6,-0.84 0.144,-0.344 0.216,-0.736 0.216,-1.176 0,-0.576 -0.096,-1.044 -0.288,-1.404 -0.184,-0.368 -0.416,-0.652 -0.696,-0.852 -0.272,-0.2 -0.552,-0.336 -0.84,-0.408 -0.288,-0.08 -0.532,-0.12 -0.732,-0.12 h -1.416 z m 18.576008,0.792 c -0.104,0.112 -0.268,0.228 -0.492,0.348 -0.224,0.112 -0.484,0.216 -0.78,0.312 -0.288,0.096 -0.584,0.172 -0.888,0.228 -0.304,0.064 -0.592,0.096 -0.864,0.096 -0.72,0 -1.368,-0.104 -1.944,-0.312 -0.576,-0.216 -1.068,-0.512 -1.476,-0.888 -0.408,-0.384 -0.72,-0.836 -0.936,-1.356 -0.216,-0.52 -0.324,-1.088 -0.324,-1.704 0,-0.808 0.12,-1.508 0.36,-2.1 0.248,-0.6 0.58,-1.096 0.996,-1.488 0.424,-0.4 0.908,-0.696 1.452,-0.888 0.552,-0.192 1.128,-0.288 1.728,-0.288 0.568,0 1.088,0.064 1.56,0.192 0.472,0.12 0.872,0.272 1.2,0.456 l -0.564,1.62 c -0.144,-0.08 -0.336,-0.16 -0.576,-0.24 -0.24,-0.08 -0.484,-0.144 -0.732,-0.192 -0.248,-0.056 -0.468,-0.084 -0.66,-0.084 -0.48,0 -0.904,0.06 -1.272,0.18 -0.368,0.12 -0.68,0.3 -0.936,0.54 -0.248,0.24 -0.436,0.54 -0.564,0.9 -0.128,0.352 -0.192,0.764 -0.192,1.236 0,0.416 0.072,0.792 0.216,1.128 0.144,0.328 0.344,0.608 0.6,0.84 0.264,0.232 0.572,0.408 0.924,0.528 0.36,0.12 0.756,0.18 1.188,0.18 0.248,0 0.476,-0.016 0.684,-0.048 0.208,-0.04 0.384,-0.1 0.528,-0.18 v -1.068 h -1.524 v -1.68 l 5.162336,-0.04769 z"
   id="text5"
   style="font-size:12px;font-family:'Josefin Sans';-inkscape-font-specification:'Josefin Sans, @wght=700';font-variation-settings:'wght' 700;white-space:pre;inline-size:47.0614;fill:#ffffff"
   transform="matrix(2.6368785,0,0,2.6571272,-88.043815,67.441053)"
   aria-label="Q D G&#10;"
   sodipodi:nodetypes="cccccsscsssccsccssscssscccscscsccsssscsccsscsscccsccscccscccsccccccsccsscccscccscssccscccsccccccc" /></svg>
