<?xml version="1.0" encoding="UTF-8" standalone="no"?>
<!-- Generator: Adobe Illustrator 17.0.0, SVG Export Plug-In . SVG Version: 6.00 Build 0)  -->

<svg
   version="1.1"
   id="Layer_1"
   x="0px"
   y="0px"
   width="165px"
   height="24px"
   viewBox="0 0 165 24"
   enable-background="new 0 0 165 24"
   xml:space="preserve"
   sodipodi:docname="logo.svg"
   inkscape:version="1.3.2 (091e20e, 2023-11-25, custom)"
   xmlns:inkscape="http://www.inkscape.org/namespaces/inkscape"
   xmlns:sodipodi="http://sodipodi.sourceforge.net/DTD/sodipodi-0.dtd"
   xmlns="http://www.w3.org/2000/svg"
   xmlns:svg="http://www.w3.org/2000/svg"><defs
   id="defs5" /><sodipodi:namedview
   id="namedview5"
   pagecolor="#ffffff"
   bordercolor="#000000"
   borderopacity="0.25"
   inkscape:showpageshadow="2"
   inkscape:pageopacity="0.0"
   inkscape:pagecheckerboard="0"
   inkscape:deskcolor="#d1d1d1"
   inkscape:zoom="7.8909091"
   inkscape:cx="92.067972"
   inkscape:cy="11.975806"
   inkscape:window-width="1920"
   inkscape:window-height="991"
   inkscape:window-x="-9"
   inkscape:window-y="-9"
   inkscape:window-maximized="1"
   inkscape:current-layer="Layer_1" />





<path
   d="m 54.141719,-18.178653 h 2.736 v 1.704 h -5.016 z m -6.78,-2.7 q 0,-0.912 0.348,-1.728 0.348,-0.816 0.96,-1.44 0.624,-0.636 1.44,-0.996 0.816,-0.36 1.752,-0.36 0.924,0 1.74,0.36 0.816,0.36 1.44,0.996 0.636,0.624 0.984,1.44 0.36,0.816 0.36,1.728 0,0.936 -0.36,1.752 -0.348,0.816 -0.984,1.44 -0.624,0.612 -1.44,0.96 -0.816,0.348 -1.74,0.348 -0.936,0 -1.752,-0.348 -0.816,-0.348 -1.44,-0.96 -0.612,-0.624 -0.96,-1.44 -0.348,-0.816 -0.348,-1.752 z m 1.8,0 q 0,0.576 0.204,1.092 0.216,0.504 0.588,0.9 0.384,0.384 0.876,0.6 0.504,0.216 1.092,0.216 0.564,0 1.044,-0.216 0.492,-0.216 0.852,-0.6 0.36,-0.384 0.564,-0.888 0.204,-0.516 0.204,-1.104 0,-0.576 -0.216,-1.08 -0.204,-0.516 -0.576,-0.9 -0.36,-0.384 -0.852,-0.6 -0.492,-0.216 -1.068,-0.216 -0.576,0 -1.068,0.216 -0.492,0.216 -0.864,0.6 -0.372,0.384 -0.576,0.9 -0.204,0.504 -0.204,1.08 z m 13.356005,4.404 v -8.832 h 2.64 q 1.332,0 2.268,0.396 0.936,0.396 1.5,1.056 0.576,0.66 0.84,1.476 0.264,0.816 0.264,1.644 0,0.984 -0.36,1.776 -0.348,0.78 -0.96,1.344 -0.612,0.552 -1.416,0.852 -0.804,0.288 -1.704,0.288 z m 1.74,-1.68 h 1.032 q 0.66,0 1.2,-0.168 0.54,-0.18 0.924,-0.516 0.396,-0.336 0.6,-0.84 0.216,-0.516 0.216,-1.176 0,-0.864 -0.288,-1.404 -0.276,-0.552 -0.696,-0.852 -0.408,-0.3 -0.84,-0.408 -0.432,-0.12 -0.732,-0.12 h -1.416 z m 18.576008,0.792 q -0.156,0.168 -0.492,0.348 -0.336,0.168 -0.78,0.312 -0.432,0.144 -0.888,0.228 -0.456,0.096 -0.864,0.096 -1.08,0 -1.944,-0.312 -0.864,-0.324 -1.476,-0.888 -0.612,-0.576 -0.936,-1.356 -0.324,-0.78 -0.324,-1.704 0,-1.212 0.36,-2.1 0.372,-0.9 0.996,-1.488 0.636,-0.6 1.452,-0.888 0.828,-0.288 1.728,-0.288 0.852,0 1.56,0.192 0.708,0.18 1.2,0.456 l -0.564,1.62 q -0.216,-0.12 -0.576,-0.24 -0.36,-0.12 -0.732,-0.192 -0.372,-0.084 -0.66,-0.084 -0.72,0 -1.272,0.18 -0.552,0.18 -0.936,0.54 -0.372,0.36 -0.564,0.9 -0.192,0.528 -0.192,1.236 0,0.624 0.216,1.128 0.216,0.492 0.6,0.84 0.396,0.348 0.924,0.528 0.54,0.18 1.188,0.18 0.372,0 0.684,-0.048 0.312,-0.06 0.528,-0.18 v -1.068 h -1.524 v -1.68 h 3.288 z"
   id="text5"
   style="font-size:12px;font-family:'Josefin Sans';-inkscape-font-specification:'Josefin Sans, @wght=700';font-variation-settings:'wght' 700;white-space:pre;inline-size:47.0614;fill:#ffffff"
   transform="matrix(2.6368785,0,0,2.6571272,-88.043815,67.441053)"
   aria-label="Q D G&#10;" /></svg>
